# xmcd
#
# Track frame offsets:
#	150
#	17138
#	30538
#	46101
#	69065
#	80805
#	94389
#	109939
#	130241
#	143876
#	162918
#	178022
#
# Disc length: 2695 seconds
#
# Revision: 1
# Processed by: cddbd v1.5.2PL0 Copyright (c) Steve Scherf et al.
# Submitted via: audiograbber 1.80
#
DISCID=9d0a850c
DTITLE=Vodnyansky - For A Better Heartbeat (Or Two)
DYEAR=1900
DGENRE=
TTITLE0=Old Black And White
TTITLE1=Include Me Out
TTITLE2=Man's Best Friend
TTITLE3=Bad Weather Blues
TTITLE4=Strangers 2 Be
TTITLE5=Misery In Action
TTITLE6=Global Drink
TTITLE7=Intro Mirrors_Sad
TTITLE8=Last Night
TTITLE9=Blue Hour
TTITLE10=First Of September
TTITLE11=Not So Attentive Blues
EXTD=
EXTT0=
EXTT1=
EXTT2=
EXTT3=
EXTT4=
EXTT5=
EXTT6=
EXTT7=
EXTT8=
EXTT9=
EXTT10=
EXTT11=
PLAYORDER=
